<?xml version="1.0" standalone="no"?>
<!DOCTYPE svg PUBLIC "-//W3C//DTD SVG 20010904//EN"
 "http://www.w3.org/TR/2001/REC-SVG-20010904/DTD/svg10.dtd">
<svg version="1.0" xmlns="http://www.w3.org/2000/svg"
 width="260.000000pt" height="260.000000pt" viewBox="0 0 260.000000 260.000000"
 preserveAspectRatio="xMidYMid meet">
<metadata>
Created by potrace 1.11, written by Peter Selinger 2001-2013
</metadata>
<g transform="translate(0.000000,260.000000) scale(0.100000,-0.100000)"
fill="#000000" stroke="none">
<path d="M29 2567 c-7 -62 -3 -2534 4 -2538 11 -8 69 -4 182 12 470 63 884
415 1028 874 23 73 46 179 50 226 1 10 4 16 7 14 3 -2 5 -256 5 -564 -1 -596
-3 -565 41 -564 453 11 882 284 1083 687 61 122 74 154 95 228 87 306 60 633
-76 911 -121 248 -316 449 -556 575 -91 48 -240 104 -307 116 -129 24 -208 32
-265 27 -14 -1 -16 -64 -15 -561 0 -308 -2 -560 -5 -560 -3 0 -11 33 -17 73
-25 158 -99 340 -196 484 -210 312 -560 525 -917 558 -36 4 -82 8 -102 10 -24
2 -38 -1 -39 -8z"/>
</g>
</svg>
